<svg width="80" height="80" viewBox="0 0 80 80" fill="none" xmlns="http://www.w3.org/2000/svg">
<path d="M68.0775 59.045L50 34.1875V10H55V5H25V10H30V34.1875L11.9225 59.045C10.8321 60.5436 10.1775 62.3147 10.0313 64.1622C9.88501 66.0098 10.2527 67.8618 11.0938 69.5133C11.9348 71.1649 13.2163 72.5515 14.7966 73.5199C16.3768 74.4882 18.1942 75.0005 20.0475 75H59.95C61.8033 75.0005 63.6207 74.4882 65.2009 73.5199C66.7812 72.5515 68.0627 71.1649 68.9038 69.5133C69.7448 67.8618 70.1125 66.0098 69.9662 64.1622C69.82 62.3147 69.1654 60.5436 68.075 59.045M35 35.8125V10H45V35.8125L51.6825 45H28.3175L35 35.8125ZM59.9525 70H20.05C19.1195 69.999 18.2073 69.7409 17.4142 69.2542C16.6211 68.7676 15.9779 68.0712 15.5556 67.2421C15.1332 66.4129 14.9482 65.4832 15.0209 64.5555C15.0936 63.6278 15.4212 62.7383 15.9675 61.985L24.6825 50H55.3175L64.035 61.985C64.5813 62.7383 64.9089 63.6278 64.9816 64.5555C65.0543 65.4832 64.8693 66.4129 64.447 67.2421C64.0246 68.0712 63.3814 68.7676 62.5883 69.2542C61.7952 69.7409 60.883 69.999 59.9525 70Z" fill="#F8F8F8"/>
</svg>
