<svg width="80" height="80" viewBox="0 0 80 80" fill="none" xmlns="http://www.w3.org/2000/svg">
<path d="M65 30H45V10H15V70H65V30ZM62.93 25L50 12.07V25H62.93ZM12.5 5H50L70 25V72.5C70 73.163 69.7366 73.7989 69.2678 74.2678C68.7989 74.7366 68.163 75 67.5 75H12.5C11.837 75 11.2011 74.7366 10.7322 74.2678C10.2634 73.7989 10 73.163 10 72.5V7.5C10 6.83696 10.2634 6.20107 10.7322 5.73223C11.2011 5.26339 11.837 5 12.5 5ZM25 40H55V45H25V40ZM25 25H37.5V30H25V25ZM25 55H55V60H25V55Z" fill="#F8F8F8"/>
</svg>
