<svg width="80" height="80" viewBox="0 0 80 80" fill="none" xmlns="http://www.w3.org/2000/svg">
<path d="M46.5112 5.05626L40.8701 34.6951L61.3063 34.7638L33.4888 74.9438L39.1301 42.3363L18.6951 42.265L46.5112 5.05626ZM46.5151 0.0563391C46.3801 0.0563391 46.2451 0.061261 46.1126 0.0711829C45.2301 0.142511 44.6451 0.437511 43.9514 0.903761C43.5608 1.16418 43.2086 1.47807 42.9051 1.83626C42.814 1.94377 42.728 2.05556 42.6476 2.17126L14.6313 39.25C13.5251 40.7663 13.3626 42.7676 14.2126 44.4401C15.0613 46.1126 16.7776 47.1726 18.6588 47.1863L33.0913 47.2913L28.5538 74.0251C28.1226 76.3226 29.3476 78.6126 31.5038 79.5351C32.1304 79.8044 32.8054 79.9431 33.4875 79.9426C35.0587 79.9426 36.35 79.2076 37.3188 77.8801L65.3701 37.7C66.4763 36.1837 66.6376 34.1799 65.7888 32.5099C64.9401 30.8374 63.2238 29.7774 61.3426 29.7637L46.9101 29.7387L51.3988 6.23243C51.4939 5.8476 51.5418 5.4526 51.5414 5.05618C51.5414 2.35118 49.3876 0.146183 46.6926 0.0586829C46.6326 0.0561829 46.5738 0.0561829 46.5151 0.0561829L46.5151 0.0563391Z" fill="#F8F8F8"/>
</svg>
