<svg width="80" height="80" viewBox="0 0 80 80" fill="none" xmlns="http://www.w3.org/2000/svg">
<path d="M78.9094 34L70.9375 18.0469C70.6808 17.5329 70.3254 17.0745 69.8915 16.6978C69.4577 16.3212 68.9539 16.0337 68.4089 15.8517C67.8639 15.6698 67.2885 15.597 66.7154 15.6374C66.1423 15.6779 65.5827 15.8308 65.0687 16.0875L57.0812 20.0813L40.4781 15.6875C40.1645 15.6063 39.8354 15.6063 39.5219 15.6875L22.9187 20.0813L14.9344 16.0875C14.4202 15.8303 13.8604 15.677 13.287 15.6363C12.7135 15.5956 12.1377 15.6683 11.5923 15.8503C11.047 16.0322 10.5429 16.3199 10.1088 16.6968C9.67472 17.0737 9.31916 17.5325 9.06248 18.0469L1.0906 34C0.571963 35.0377 0.486692 36.2389 0.853543 37.3394C1.22039 38.44 2.00933 39.3498 3.04685 39.8688L11.5312 44.1125L28.9094 56.525C29.0977 56.6608 29.3096 56.7604 29.5344 56.8188L49.5344 61.8188C49.6866 61.8569 49.843 61.8758 50 61.875C50.4971 61.8746 50.9737 61.6767 51.325 61.325L68.6094 44.0406L76.9531 39.8688C77.9906 39.3498 78.7796 38.44 79.1464 37.3394C79.5133 36.2389 79.428 35.0377 78.9094 34ZM62.3469 44.9875L51.1594 36.025C50.7986 35.7362 50.3438 35.5909 49.8824 35.6168C49.421 35.6428 48.9855 35.8382 48.6594 36.1656C42.8312 42.0375 36.3156 41.2969 32.1625 38.6406C32.0808 38.5903 32.0119 38.5218 31.9609 38.4405C31.91 38.3592 31.8784 38.2673 31.8687 38.1719C31.8576 38.0844 31.8662 37.9955 31.8938 37.9117C31.9213 37.8279 31.9672 37.7513 32.0281 37.6875L45.7594 24.375H56.3406L65.2187 42.1313L62.3469 44.9875ZM4.40935 36.1531C4.35767 35.9965 4.37003 35.8257 4.44373 35.6781L12.4187 19.7219C12.4711 19.6179 12.5516 19.5306 12.651 19.4698C12.7504 19.4091 12.8648 19.3773 12.9812 19.3781C13.0778 19.3782 13.173 19.4007 13.2594 19.4438L20.2 22.9125L11.6625 40L4.72185 36.5313C4.64696 36.4926 4.58066 36.4391 4.52696 36.3741C4.47325 36.3091 4.43325 36.234 4.40935 36.1531ZM49.425 57.925L30.8 53.2688L14.8937 41.9063L24.0125 23.6719L40 19.4406L44.625 20.6656C44.2713 20.7341 43.9453 20.9046 43.6875 21.1563L29.4062 35.0156C28.9425 35.479 28.5889 36.0407 28.3715 36.6592C28.1541 37.2776 28.0784 37.9371 28.1501 38.5887C28.2218 39.2403 28.4391 39.8675 28.7857 40.4239C29.1324 40.9803 29.5997 41.4516 30.1531 41.8031C36.4719 45.8406 44.1375 45.0813 50.0906 39.9625L59.6875 47.6563L49.425 57.925ZM75.5906 36.1531C75.5649 36.2311 75.524 36.3033 75.4704 36.3655C75.4168 36.4277 75.3515 36.4787 75.2781 36.5156L68.3375 40L59.8 22.9125L66.7406 19.4438C66.8141 19.4068 66.8942 19.3848 66.9762 19.3789C67.0583 19.373 67.1407 19.3834 67.2187 19.4094C67.2967 19.4351 67.3689 19.4759 67.4311 19.5296C67.4933 19.5832 67.5443 19.6485 67.5812 19.7219L75.5562 35.6781C75.6299 35.8257 75.6423 35.9965 75.5906 36.1531ZM40.5906 67.9531C40.4703 68.4354 40.1634 68.8502 39.7374 69.1062C39.3113 69.3623 38.8011 69.4388 38.3187 69.3188L25.2781 66.0594C25.0531 66.0017 24.8411 65.902 24.6531 65.7656L16.4125 59.8875C16.0076 59.5974 15.7346 59.1584 15.6534 58.667C15.5722 58.1756 15.6896 57.6721 15.9797 57.2672C16.2697 56.8623 16.7088 56.5893 17.2002 56.5081C17.6916 56.4269 18.1951 56.5443 18.6 56.8344L26.5344 62.5L39.225 65.6719C39.4645 65.7317 39.6898 65.8383 39.8881 65.9855C40.0863 66.1327 40.2535 66.3175 40.3801 66.5295C40.5067 66.7415 40.5902 66.9763 40.6258 67.2206C40.6613 67.4649 40.6483 67.7139 40.5875 67.9531H40.5906Z" fill="#F8F8F8"/>
</svg>
