<svg width="80" height="80" viewBox="0 0 80 80" fill="none" xmlns="http://www.w3.org/2000/svg">
<path d="M0.892853 39.7486C0.892853 41.3557 2.16428 42.3271 3.73857 42.3271C4.71 42.3271 5.48 41.8586 6.15 41.1886L38.8286 11.4229C39.1957 11.0543 39.5986 10.92 40.0329 10.92C40.4357 10.92 40.8043 11.0543 41.2043 11.4229L73.85 41.1886C74.5529 41.8586 75.3229 42.3271 76.2614 42.3271C77.8343 42.3271 79.1071 41.3557 79.1071 39.7486C79.1071 38.7443 78.7386 38.1086 78.1029 37.5386L66.5171 26.9929V7.20428C66.5171 5.73142 65.58 4.79428 64.1071 4.79428H59.7214C58.2814 4.79428 57.2771 5.73142 57.2771 7.20428V18.5886L44.0171 6.46714C42.8457 5.36285 41.4057 4.82857 40 4.82857C38.5929 4.82857 37.1871 5.36428 35.9814 6.46857L1.89714 37.5386C1.29428 38.1086 0.892853 38.7443 0.892853 39.7486ZM10.4686 67.84C10.4686 72.4943 13.2814 75.2071 18.0014 75.2071H31.5629V51.4C31.5629 49.86 32.6 48.8571 34.14 48.8571H45.96C47.5 48.8571 48.5043 49.86 48.5043 51.4V75.2071H62.0314C66.7514 75.2071 69.5314 72.4943 69.5314 67.84V43.3314L41.1043 17.7171C40.7357 17.3829 40.3343 17.2157 39.9329 17.2157C39.5643 17.2157 39.1957 17.3829 38.7943 17.7514L10.4686 43.4986V67.84Z" fill="#F8F8F8"/>
</svg>
