<svg width="44" height="44" viewBox="0 0 44 44" fill="none" xmlns="http://www.w3.org/2000/svg">
<path d="M28.5531 0.24823L27.2444 2.2422C30.8239 4.57142 33.5889 7.7757 36.3267 13.7901L37.9043 11.4645C37.421 9.83295 36.8917 8.1026 36.4043 6.65032C35.8796 5.08639 35.3226 3.75664 35.1757 3.53839C35.052 3.35464 34.1681 2.65226 32.876 2.00651C31.7243 1.43089 30.2255 0.820105 28.5532 0.248324L28.5531 0.24823ZM29.3341 6.01667L24.2284 10.0474C25.2373 10.6263 25.9628 11.6488 26.1329 12.8437L31.5235 8.58785C30.8183 7.60451 30.0949 6.76114 29.3341 6.01667ZM22.3281 11.2271C21.1272 11.2271 20.1719 12.1824 20.1719 13.3834C20.1719 14.5842 21.1272 15.5396 22.3281 15.5396C23.5291 15.5396 24.4844 14.5842 24.4844 13.3834C24.4844 12.1824 23.5291 11.2271 22.3281 11.2271ZM18.6398 14.4592L6.20219 24.2785C7.312 24.7163 8.11525 25.7797 8.16859 27.0259L20.9219 16.9576C19.8273 16.523 18.9751 15.5989 18.6398 14.4592ZM34.9844 14.8762V34.5643H36.6719V16.2872L36.0079 17.2659L35.403 15.8391C35.2661 15.517 35.1265 15.196 34.9844 14.8762ZM26.2997 14.9271L24.8169 16.075L25.1725 17.7639L23.8107 16.8539L22.4035 17.9434L25.1031 19.7474L18.4183 22.8254L18.8702 20.6788L16.8099 22.2739L14.5267 33.1187L14.4855 33.1369L14.511 33.1941L12.6435 42.0643H11.1719V43.7518H31.9844V41.9294L26.2997 14.9271ZM25.9035 21.2365L27.0303 26.5885L19.6188 24.1306L25.9035 21.2365ZM17.89 25.335L25.993 28.0224L16.4294 32.2729L17.89 25.335ZM5.07812 25.7519C4.29156 25.7519 3.67188 26.3715 3.67188 27.1581C3.67188 27.9448 4.29156 28.5644 5.07812 28.5644C5.86469 28.5644 6.48438 27.9447 6.48438 27.1581C6.48438 26.3716 5.86469 25.7519 5.07812 25.7519ZM27.573 29.1669L28.9748 35.8258L18.4792 33.2087L27.573 29.1669ZM7.05822 29.528C6.62744 29.8891 6.09822 30.1356 5.51884 30.2196L7.51253 34.5644H9.36916L7.05822 29.528ZM3.09897 29.5288L0.787094 34.5644H2.64409L4.63872 30.2198C4.05925 30.1361 3.52984 29.8897 3.09897 29.5288ZM15.9965 34.3288L26.9447 37.0586L14.4665 41.5964L15.9965 34.3288ZM0.671875 36.2517V42.0642H9.48438V36.2517H0.671875ZM33.6719 36.2517V37.7517H37.9844V36.2517H33.6719ZM29.4227 37.9533L30.2882 42.0642H18.1176L29.4227 37.9533ZM33.6719 39.4392V42.0642H37.9844V39.4392H33.6719ZM39.6719 42.0642V43.7517H43.3281V42.0642H39.6719Z" fill="white"/>
</svg>
