<svg width="80" height="80" viewBox="0 0 80 80" fill="none" xmlns="http://www.w3.org/2000/svg">
<path d="M36 26C35.9995 22.9917 36.753 20.0312 38.1916 17.3892C39.6301 14.7472 41.708 12.5078 44.2351 10.8759C46.7623 9.24387 49.6581 8.27129 52.6581 8.04701C55.658 7.82274 58.6663 8.35392 61.408 9.592C61.7028 9.72513 61.9609 9.92777 62.1602 10.1826C62.3595 10.4373 62.494 10.7367 62.5522 11.0548C62.6104 11.373 62.5906 11.7006 62.4944 12.0094C62.3982 12.3182 62.2286 12.5991 62 12.828L52.828 22L58 27.172L67.172 18C67.4006 17.7713 67.6812 17.6014 67.9899 17.505C68.2985 17.4085 68.6259 17.3883 68.9441 17.4461C69.2622 17.504 69.5616 17.638 69.8166 17.8369C70.0715 18.0358 70.2745 18.2935 70.408 18.588C71.8041 21.6752 72.3006 25.0938 71.8402 28.4507C71.3798 31.8075 69.9813 34.9662 67.8056 37.5636C65.6298 40.1609 62.7652 42.0915 59.541 43.1331C56.3169 44.1748 52.8642 44.2853 49.58 43.452L24.12 69.244C22.3733 71.0337 19.9872 72.0562 17.4866 72.0866C14.9859 72.1169 12.5757 71.1527 10.786 69.406C8.99633 67.6593 7.97383 65.2732 7.94345 62.7726C7.91306 60.2719 8.87729 57.8617 10.624 56.072L36.328 29.44C36.1086 28.3065 35.9988 27.1545 36 26ZM54 12C51.8592 11.9994 49.7467 12.4898 47.8251 13.4334C45.9035 14.377 44.2238 15.7488 42.9154 17.4432C41.6069 19.1376 40.7044 21.1095 40.2774 23.2073C39.8503 25.3051 39.9101 27.4729 40.452 29.544C40.5377 29.8758 40.5368 30.224 40.4492 30.5553C40.3617 30.8866 40.1905 31.1899 39.952 31.436L13.504 58.852C12.4983 59.8821 11.943 61.2695 11.9603 62.7091C11.9775 64.1486 12.5659 65.5223 13.596 66.528C14.6261 67.5337 16.0135 68.089 17.4531 68.0718C18.8926 68.0545 20.2663 67.4661 21.272 66.436L47.568 39.796C47.8294 39.5309 48.1596 39.344 48.5214 39.2564C48.8832 39.1688 49.2623 39.1839 49.616 39.3C51.9523 40.0702 54.4502 40.2112 56.8583 39.7089C59.2664 39.2066 61.4997 38.0786 63.3331 36.4386C65.1666 34.7985 66.5356 32.7044 67.3022 30.3669C68.0688 28.0295 68.206 25.5313 67.7 23.124L59.412 31.416C59.037 31.7909 58.5283 32.0016 57.998 32.0016C57.4677 32.0016 56.9591 31.7909 56.584 31.416L48.584 23.416C48.3978 23.2302 48.25 23.0095 48.1492 22.7665C48.0483 22.5236 47.9964 22.2631 47.9964 22C47.9964 21.7369 48.0483 21.4764 48.1492 21.2335C48.25 20.9905 48.3978 20.7698 48.584 20.584L56.876 12.296C55.9288 12.0981 54.9637 11.9989 53.996 12" fill="#F8F8F8"/>
</svg>
